<svg xmlns="http://www.w3.org/2000/svg" viewBox="0 0 24 24" fill="none">
  <path fill="currentColor" d="M12 2.75c5.11 0 9.25 3.7 9.25 8.26 0 3.03-1.84 5.68-4.58 7.11.14.82.47 1.58.98 2.21.2.24.02.61-.29.61-1.48 0-2.86-.57-3.88-1.5-.48.06-.97.09-1.48.09-5.11 0-9.25-3.7-9.25-8.26S6.89 2.75 12 2.75Zm-3.95 8.61c.62 0 1.13-.5 1.13-1.12s-.51-1.13-1.13-1.13-1.12.51-1.12 1.13.5 1.12 1.12 1.12Zm3.95 0c.62 0 1.13-.5 1.13-1.12S12.62 9.11 12 9.11s-1.13.51-1.13 1.13.51 1.12 1.13 1.12Zm3.95 0c.62 0 1.12-.5 1.12-1.12s-.5-1.13-1.12-1.13-1.13.51-1.13 1.13.51 1.12 1.13 1.12Z" />
</svg>
