<svg xmlns="http://www.w3.org/2000/svg" width="24" height="24" viewBox="-1 -1 15 13" fill="currentColor" role="img" aria-label="Warp">
  <path d="M6.56824 0.0140837C6.56404 0.0197507 6.5622 0.0273561 6.55852 0.0425669L4.49728 8.56236C4.49161 8.58581 4.48877 8.59754 4.49168 8.60677C4.49422 8.61485 4.49964 8.62173 4.5069 8.62611C4.51518 8.6311 4.52725 8.6311 4.55138 8.6311H11.4134C12.1976 8.6311 12.8333 7.97418 12.8333 7.16381V1.46729C12.8333 0.656929 12.1976 0 11.4134 0H6.61262C6.59697 0 6.58914 0 6.58265 0.00274617C6.57692 0.00516895 6.57194 0.00908414 6.56824 0.0140837Z"/>
  <path d="M5.2995 1.65943C5.30242 1.66864 5.29961 1.68036 5.29399 1.70378L3.44916 9.39463C3.44354 9.41805 3.44074 9.42976 3.44365 9.43898C3.4462 9.44705 3.45162 9.45391 3.45887 9.45828C3.46715 9.46327 3.47919 9.46327 3.50328 9.46327H6.33314C6.35723 9.46327 6.36927 9.46327 6.37755 9.46825C6.3848 9.47262 6.39022 9.47948 6.39277 9.48756C6.39569 9.49677 6.39288 9.50848 6.38726 9.5319L6.22135 10.2236C6.21769 10.2388 6.21586 10.2464 6.21166 10.2521C6.20796 10.2571 6.20298 10.2611 6.19725 10.2635C6.19074 10.2662 6.1829 10.2662 6.16723 10.2662H1.40785C0.630318 10.2662 0 9.60933 0 8.79895V3.10243C0 2.29207 0.630318 1.63514 1.40785 1.63514H5.23987C5.26396 1.63514 5.276 1.63514 5.28428 1.64013C5.29154 1.64449 5.29695 1.65136 5.2995 1.65943Z"/>
</svg>
